<svg xmlns="http://www.w3.org/2000/svg" width="1024" height="1024" viewBox="0 0 1024 1024" version="1.1">
	<path d="M 469.500 215.594 C 426.386 218.063, 416.945 220.099, 403.628 229.801 C 392.354 238.013, 387.378 246.335, 362.115 299.220 C 356.664 310.630, 352.071 316.237, 346.145 318.713 C 342.622 320.185, 317.480 322.415, 315.840 321.401 C 314.215 320.397, 315.032 318.122, 318.132 315.021 C 321.131 312.023, 321.243 311.618, 320.757 305.559 C 320.117 297.584, 317.754 293.544, 312.144 290.827 C 307.998 288.821, 306.780 288.736, 291.122 289.359 C 254.625 290.813, 206.868 298.398, 199.018 303.987 C 197.444 305.108, 195.384 308.046, 194.441 310.516 C 191.495 318.229, 194.973 330.202, 200.566 331.606 C 202.408 332.068, 203.024 332.807, 202.804 334.289 C 202.562 335.917, 201.275 336.588, 196.500 337.576 C 164.391 344.221, 141.380 362.430, 130.882 389.500 C 119.815 418.040, 114.005 478.705, 114.027 565.500 C 114.042 622.152, 116.580 659.902, 123.104 700.500 C 128.384 733.364, 136.206 751.169, 152.161 766.651 C 175.299 789.103, 200.721 795.443, 290.500 801.153 C 315.785 802.761, 656.068 803.520, 701 802.068 C 789.978 799.193, 833.285 792.218, 856.209 777.068 C 875.495 764.322, 887.757 746.386, 893.952 721.856 C 903.104 685.619, 907.994 629.721, 907.980 561.500 C 907.966 492.600, 903.835 441.206, 895.361 404.500 C 888.292 373.885, 869.612 352.332, 841.165 341.972 C 832.128 338.681, 818.338 335.354, 801.750 332.463 C 792.997 330.938, 792 330.546, 792 328.632 C 792 327.394, 793.468 325.328, 795.502 323.705 C 799.842 320.243, 802.549 315.056, 804.600 306.271 C 806.439 298.398, 805.945 292.772, 802.886 286.777 C 799.308 279.763, 796.814 276.968, 789.578 271.862 C 779.902 265.035, 769.723 261.878, 755.359 261.246 C 735.575 260.377, 722.686 264.283, 713.725 273.863 C 705.580 282.571, 702.237 299.965, 706.749 310.165 C 707.862 312.682, 709.274 315.052, 709.887 315.430 C 710.499 315.808, 710.993 316.879, 710.985 317.809 C 710.948 321.808, 710.089 321.970, 693.837 321.050 C 667.991 319.587, 668.730 320.313, 647.431 275.504 C 631.945 242.926, 626.036 234.640, 612.500 226.525 C 598.119 217.902, 581.803 215.977, 519.500 215.551 C 495.300 215.385, 472.800 215.405, 469.500 215.594 M 469.500 231.636 C 428.385 234.740, 423.568 235.691, 413.707 242.641 C 405.130 248.687, 401.412 254.948, 380.005 299.402 C 371.952 316.125, 370.222 318.969, 365.003 324.076 C 361.437 327.565, 356.475 331.103, 352.455 333.021 C 346.021 336.092, 345.003 336.254, 320.928 338.044 C 249.156 343.381, 195.191 352.310, 175.974 362.029 C 160.949 369.628, 148.079 386.076, 143.526 403.500 C 141.291 412.053, 136.840 439.815, 137.198 442.965 L 137.500 445.616 146 444.350 C 152.434 443.392, 180.583 443.074, 261.786 443.042 L 369.072 443 381.786 431.369 C 419.424 396.937, 465.045 379.084, 515.564 379.018 C 567.252 378.951, 614.431 398.047, 652.460 434.428 L 661.421 443 757.827 443 C 853.741 443, 854.231 442.990, 853.710 441 C 853.370 439.700, 853.680 439, 854.594 439 C 855.367 439, 856 439.478, 856 440.063 C 856 440.647, 856.788 441.046, 857.750 440.948 C 858.712 440.850, 861.300 440.866, 863.500 440.985 C 866.937 441.169, 867.148 441.301, 865 441.922 C 862.395 442.675, 863.480 442.881, 879.362 444.646 L 885.224 445.298 884.642 442.399 C 884.321 440.805, 883.564 435.675, 882.959 431 C 878.985 400.278, 873.820 386.916, 860.611 373.189 C 846.585 358.613, 824.864 351.576, 773.663 345.022 C 743.233 341.127, 735.080 340.360, 688.958 337.050 C 675.315 336.071, 670.593 334.690, 662.258 329.242 C 653.866 323.757, 649.046 316.588, 637.912 293.031 C 620.808 256.840, 619.772 254.915, 614.100 248.764 C 604.384 238.228, 598.072 235.669, 576.140 233.375 C 564.765 232.186, 548.775 231.674, 517.500 231.499 C 493.850 231.367, 472.250 231.428, 469.500 231.636 M 449.444 266.870 C 444.443 269.162, 438.708 275.692, 437.161 280.858 C 436.478 283.137, 436 291.708, 436 301.670 C 436 317.819, 436.119 318.845, 438.549 323.722 C 441.294 329.231, 446.172 333.578, 451.910 335.629 C 457.342 337.571, 566.707 337.567, 571.355 335.625 C 576.060 333.659, 581.765 328.354, 584.292 323.595 C 586.194 320.014, 586.511 317.569, 586.826 304.109 C 587.023 295.644, 586.898 286.803, 586.546 284.461 C 585.715 278.914, 581.059 271.984, 575.739 268.376 L 571.500 265.500 512.500 265.256 C 456.823 265.025, 453.272 265.116, 449.444 266.870 M 735.030 281.583 C 724.626 286.096, 726.242 293.240, 737.293 291.583 C 745.968 290.282, 754.501 282.558, 749.418 280.607 C 746.555 279.508, 738.564 280.051, 735.030 281.583 M 276 305.111 C 251.309 307.565, 217.088 312.512, 215.785 313.815 C 215.135 314.465, 224.994 313.378, 250.500 309.988 C 267.565 307.719, 274.746 306.819, 281.201 306.138 C 284.886 305.750, 288.224 305.109, 288.618 304.716 C 289.442 303.892, 287.720 303.946, 276 305.111 M 761.204 393.128 C 753.695 396.845, 749 405.070, 749 414.508 C 749 421.436, 751.457 426.524, 757.162 431.407 C 767.452 440.215, 782.211 437.890, 790.453 426.163 C 793 422.539, 793.519 420.760, 793.801 414.687 C 794.109 408.023, 793.892 407.103, 790.817 402.043 C 784.676 391.941, 771.572 387.996, 761.204 393.128 M 445.679 448.027 C 409.971 458.521, 380.580 497.575, 380.787 534.254 C 380.822 540.472, 381.435 545.793, 382.477 548.932 C 387.769 564.864, 401.390 570.332, 414.291 561.704 C 417.232 559.738, 421.824 554.830, 426.179 549 C 430.082 543.775, 434.422 538.263, 435.824 536.750 C 439.005 533.320, 441.512 533.055, 440.570 536.250 C 440.205 537.487, 439.646 541.018, 439.328 544.095 C 438.790 549.303, 438.960 549.924, 441.794 553.095 C 444.504 556.126, 445.381 556.492, 449.774 556.430 C 456.141 556.340, 461.954 552.977, 469.117 545.241 C 476.761 536.984, 481 528.009, 481 520.082 C 481 514.861, 480.621 513.530, 478.545 511.455 C 475.810 508.719, 471.208 508.259, 464.690 510.069 C 462.595 510.651, 460.405 510.968, 459.824 510.775 C 459.244 510.581, 461.633 506.883, 465.134 502.557 C 468.635 498.231, 472.956 492.848, 474.735 490.596 C 483.891 479.006, 484.749 462.084, 476.633 453.153 C 470.573 446.484, 458.009 444.404, 445.679 448.027 M 563.756 454.705 C 557.511 456.788, 549.848 464.144, 548.222 469.616 C 546.368 475.859, 546.732 480.310, 549.705 487.739 C 551.824 493.038, 553.933 496.024, 559.455 501.546 C 565.388 507.480, 567.890 509.174, 575.301 512.276 C 588.721 517.892, 603.325 519.547, 609.628 516.165 C 610.657 515.613, 613.465 514.205, 615.866 513.036 C 620.725 510.671, 621.535 509.966, 624.924 505.148 C 626.644 502.702, 627.412 499.972, 627.764 495.050 C 628.196 489.014, 627.919 487.615, 625.130 481.773 C 619.679 470.352, 607.042 460.404, 591.206 455.069 C 583.677 452.533, 570.783 452.362, 563.756 454.705 M 138.383 456.714 C 135.351 457.096, 135.248 457.277, 134.651 463.303 C 132.220 487.816, 131.581 507.745, 131.563 559.500 C 131.544 617.984, 132.575 641.103, 136.583 672 C 139.274 692.741, 138.349 690.590, 145.335 692.350 C 148.695 693.196, 151.616 693.717, 151.825 693.508 C 152.035 693.299, 151.234 684.661, 150.046 674.314 C 146.026 639.307, 144.902 619.884, 144.319 575.352 C 143.674 526.132, 145.168 485.527, 148.553 460.250 L 149.123 456 145.311 456.160 C 143.215 456.248, 140.097 456.497, 138.383 456.714 M 873.365 459.608 C 876.216 478.458, 877.969 516.580, 877.983 560 C 878 612.222, 876.049 645.815, 871.018 679.935 C 869.929 687.325, 869.161 693.494, 869.311 693.645 C 869.738 694.071, 881.415 690.922, 882.195 690.170 C 883.025 689.370, 886.512 662.358, 887.962 645.500 C 891.104 608.957, 891.639 528.396, 888.985 491.500 C 888.470 484.350, 887.744 473.871, 887.371 468.214 C 886.997 462.556, 886.408 457.752, 886.061 457.538 C 885.714 457.323, 882.583 456.826, 879.103 456.432 L 872.776 455.716 873.365 459.608 M 141.001 704.625 C 141.002 705.656, 142.145 711.225, 143.542 717 C 148.878 739.065, 160.179 755.102, 177.271 764.864 C 197.926 776.660, 237.001 782.231, 318.876 785.051 C 346.720 786.010, 483 786.986, 483 786.227 C 483 785.138, 471.950 781.529, 464 780.021 C 456.225 778.546, 446.783 778.102, 412 777.575 C 323.931 776.243, 265.107 773.330, 226 768.365 C 197.425 764.737, 181.951 757.618, 169.724 742.477 C 163.338 734.570, 159.508 726.515, 156.764 715.223 C 154.540 706.069, 154.462 705.932, 150.950 704.987 C 142.399 702.684, 141 702.633, 141.001 704.625 M 873.500 704.830 C 870.200 705.626, 867.372 706.381, 867.217 706.506 C 867.061 706.631, 865.781 710.939, 864.372 716.079 C 858.366 737.999, 845.858 753.488, 827.784 761.390 C 814.163 767.345, 789.145 771.422, 748 774.392 C 701.316 777.762, 673.199 778.808, 608.263 779.593 C 554.685 780.241, 544.953 780.892, 536.596 784.392 C 534.450 785.291, 532.875 786.146, 533.096 786.293 C 534.252 787.057, 718.085 785.034, 733 784.093 C 797.126 780.047, 828.978 774.329, 845.543 763.891 C 862.534 753.184, 874.182 735.655, 878.503 714.294 C 880.782 703.027, 880.803 703.066, 873.500 704.830 M 231.269 718.693 C 232.242 718.947, 233.592 718.930, 234.269 718.656 C 234.946 718.382, 234.150 718.175, 232.500 718.195 C 230.850 718.215, 230.296 718.439, 231.269 718.693 M 236 718.966 C 236 719.535, 236.583 720, 237.296 720 C 238.008 720, 246.221 720.657, 255.546 721.459 C 275.178 723.149, 310.666 724.647, 353.862 725.609 C 383.889 726.278, 384.212 726.264, 383.166 724.311 C 380.743 719.783, 380.903 719.800, 344.791 720.261 C 310.406 720.700, 249.650 719.699, 240.750 718.546 C 237.748 718.157, 236 718.312, 236 718.966 M 771.500 719.127 C 764.350 719.570, 734.506 719.982, 705.181 720.042 L 651.862 720.152 648.681 723.147 L 645.500 726.143 675 725.523 C 723.504 724.502, 777.015 721.348, 785.500 719.008 C 788.959 718.054, 788.795 718.055, 771.500 719.127" stroke="none" fill="#0202f2" fill-rule="evenodd"/>
</svg>