<svg xmlns="http://www.w3.org/2000/svg" width="1024" height="1024" viewBox="0 0 1024 1024" version="1.1">
	<path d="M 456 217.458 C 427.715 219.380, 419.572 221.149, 408.633 227.748 C 405.406 229.695, 400.746 233.307, 398.277 235.775 C 390.184 243.868, 386.742 250.035, 365.775 294 C 354.167 318.341, 351.706 320.243, 329.580 321.978 C 318.401 322.854, 315.500 322.816, 314.846 321.785 C 313.397 319.502, 313.937 317.861, 317.116 314.892 C 320.096 312.108, 320.214 311.699, 319.819 305.501 C 319.079 293.878, 314.014 290.004, 299.557 290.002 C 271.890 289.997, 213.061 298.081, 201.769 303.439 C 196.983 305.711, 194.666 310.162, 194.750 316.925 C 194.843 324.363, 196.264 327.633, 200.485 330.123 C 205.426 333.039, 204.811 338, 199.507 338 C 195.103 338, 179.130 343.288, 170.747 347.521 C 158.939 353.484, 152.140 358.693, 145.647 366.749 C 134.171 380.991, 129.757 391.390, 125.096 415.170 C 118.188 450.420, 115.023 496.588, 115.031 562 C 115.041 635.557, 120.498 695.556, 130.174 728.500 C 135.447 746.451, 147.197 763.335, 161.500 773.510 C 184.767 790.065, 210.470 795.208, 295 800.224 C 326.168 802.074, 693.629 802.048, 727 800.194 C 785.528 796.943, 823.697 791.282, 843.274 782.951 C 867.184 772.777, 885.186 751.198, 892.453 724 C 897.212 706.191, 902.426 668.822, 905.011 634 C 906.747 610.618, 907.337 546.482, 906.117 513.863 C 904.234 463.520, 900.046 427.178, 892.766 398 C 888.256 379.924, 873.006 359.920, 856.324 350.197 C 843.945 342.984, 834.091 339.704, 812.500 335.611 C 790.082 331.362, 791.537 331.820, 791.199 328.908 C 790.968 326.925, 791.735 325.677, 794.458 323.600 C 798.826 320.268, 801.527 315.149, 803.600 306.271 C 806.383 294.356, 803.359 285.183, 793.754 276.408 C 783.236 266.799, 768.883 261.989, 750.803 262.015 C 734.847 262.038, 725.073 265.019, 716.044 272.617 C 710.177 277.553, 705.789 289.193, 705.662 300.157 C 705.595 306.002, 705.982 307.452, 708.841 312.050 C 711.345 316.080, 711.950 317.952, 711.463 320.170 L 710.830 323.052 700.165 322.498 C 682.851 321.598, 679.028 321.068, 673.876 318.851 C 665.553 315.271, 666.402 316.656, 642.678 268 C 631.011 244.074, 625.231 235.991, 614.809 229.031 C 599.701 218.942, 585.475 217.093, 518.500 216.508 C 489.455 216.255, 469.171 216.563, 456 217.458 M 480.500 230.100 C 456.858 231.092, 430.083 233.707, 424.921 235.528 C 415.337 238.909, 407.218 245.499, 401.353 254.654 C 399.294 257.869, 392.153 271.750, 385.483 285.500 C 369.348 318.767, 369.918 317.761, 363.829 323.686 C 358.016 329.343, 351.019 333.285, 344 334.857 C 341.525 335.411, 330.950 336.378, 320.500 337.006 C 267.299 340.202, 201.226 350.333, 182.182 358.215 C 165.092 365.287, 151.351 378.816, 145.137 394.684 C 142.116 402.398, 136.704 430.099, 135.794 442.500 C 135.509 446.380, 135.590 446.494, 138.500 446.304 C 140.150 446.197, 147.350 445.660, 154.500 445.110 C 162.597 444.489, 205.590 444.303, 268.500 444.619 L 369.500 445.126 379 435.941 C 403.431 412.320, 429.388 397.140, 460.713 388.152 C 492.433 379.051, 530.154 378.054, 560.782 385.507 C 596.332 394.157, 624.835 410.008, 653.257 436.935 L 662.015 445.232 758.757 444.746 C 841.649 444.330, 861.621 444.574, 882.500 446.258 L 885.500 446.500 885.262 441 C 884.982 434.551, 881.567 413.319, 879.311 404 C 876.161 390.987, 866.570 375.659, 856.693 367.851 C 845.818 359.255, 831.453 353.773, 807.500 349.077 C 781.879 344.054, 731.028 338.339, 695.500 336.489 C 674.930 335.418, 667.296 333.001, 658.302 324.710 C 651.900 318.810, 649.293 314.619, 640.752 296.500 C 618.932 250.213, 617.098 247.252, 605.683 239.873 C 596.422 233.888, 583.937 231.998, 540.500 230.007 C 517.035 228.931, 508.016 228.945, 480.500 230.100 M 453.500 266.714 C 449.802 267.605, 443.421 272.227, 441.190 275.631 C 437.749 280.881, 436.792 287.704, 437.161 304.361 C 437.494 319.382, 437.556 319.754, 440.526 324.555 C 442.400 327.583, 445.418 330.600, 448.447 332.474 L 453.340 335.500 508.920 335.800 C 549.067 336.016, 565.668 335.775, 568.708 334.932 C 574.126 333.428, 580.767 327.722, 583.114 322.556 C 584.680 319.107, 584.959 315.823, 584.978 300.610 C 584.998 284.177, 584.822 282.362, 582.809 278.333 C 581.605 275.920, 579.129 272.811, 577.309 271.422 C 570.024 265.865, 571.583 265.991, 511.282 266.116 C 480.602 266.180, 454.600 266.449, 453.500 266.714 M 745 275.753 C 738.078 276.248, 728.629 279.738, 724.589 283.292 C 721.679 285.851, 720.705 287.658, 719.770 292.226 C 717.696 302.355, 718.483 303.133, 736.335 308.589 C 747.712 312.066, 754.881 312.996, 769.500 312.893 C 787.264 312.767, 787.033 312.863, 789.724 304.528 C 790.947 300.739, 791.688 296.607, 791.372 295.344 C 791.055 294.082, 789.011 291.021, 786.829 288.543 C 778.889 279.523, 762.472 274.503, 745 275.753 M 453.299 277.960 C 447.794 281.316, 447 284.162, 447 300.549 C 447 316.595, 447.819 319.846, 452.783 323.500 C 455.412 325.435, 457.300 325.509, 510.842 325.775 C 564.603 326.042, 566.276 325.993, 569.405 324.059 C 574.930 320.644, 575.500 318.450, 575.500 300.596 C 575.500 286.437, 575.272 284.163, 573.602 281.699 C 569.656 275.877, 570.997 276, 511.300 276.004 C 458.712 276.007, 456.371 276.086, 453.299 277.960 M 287.500 302.685 C 266.620 303.897, 216.145 310.928, 211 313.342 C 207.946 314.775, 206.965 319.665, 209.533 320.651 C 212.476 321.780, 267.733 314.868, 294.901 309.972 C 306.189 307.938, 308.104 306.978, 306.374 304.222 C 305.229 302.400, 299.900 301.966, 287.500 302.685 M 724 309.878 C 724 310.360, 724.675 311.315, 725.500 312 C 727.408 313.583, 727.410 317.586, 725.507 322.981 C 724.686 325.308, 724.243 327.584, 724.523 328.036 C 724.802 328.489, 727.612 329.160, 730.766 329.528 C 733.920 329.895, 743.925 331.272, 753 332.588 C 775.543 335.858, 774.670 335.929, 775.527 330.750 C 775.914 328.413, 777.079 324.728, 778.115 322.562 C 779.152 320.396, 780 318.484, 780 318.312 C 780 318.140, 777.638 318, 774.750 317.999 C 759.333 317.997, 736.189 314.218, 729.081 310.542 C 725.724 308.806, 724 308.581, 724 309.878 M 287 319.613 C 282.325 320.351, 275.125 321.401, 271 321.946 C 252.751 324.357, 231.922 326.911, 225.250 327.557 L 218 328.258 218 332.070 C 218 334.167, 218.366 336.108, 218.814 336.385 C 219.261 336.661, 222.749 336.484, 226.564 335.990 C 230.379 335.495, 247.675 333.477, 265 331.504 C 282.325 329.531, 297.512 327.702, 298.750 327.440 C 301.083 326.944, 301.577 324.753, 300.370 320.250 C 299.681 317.681, 299.333 317.664, 287 319.613 M 498 391.674 C 427.914 398.766, 368.850 443.223, 343.105 508.262 C 339.818 516.565, 336.752 527.365, 333.811 541 C 330.841 554.771, 330.118 587.482, 332.431 603.465 C 337.011 635.108, 349.073 663.851, 368.538 689.500 C 398.625 729.146, 440.514 753.662, 490.036 760.607 C 507.215 763.016, 537.293 762.075, 553.569 758.620 C 580.560 752.891, 606.612 741.116, 627.312 725.290 C 643.336 713.040, 663.727 690.075, 674.389 672.271 C 701.422 627.129, 707.637 566.375, 690.359 516.161 C 679.769 485.384, 659.402 455.198, 635.810 435.315 C 600.985 405.964, 559.256 390.719, 515 391.180 C 507.575 391.257, 499.925 391.479, 498 391.674 M 762.500 394.306 C 756.603 397.149, 754.811 398.991, 752.077 405.018 C 746.437 417.452, 753.879 432.058, 767.380 435.049 C 771.891 436.049, 773.177 435.929, 778.190 434.043 C 792.321 428.725, 797.320 413.014, 788.782 400.754 C 785.906 396.624, 778.866 392.936, 772.797 392.380 C 768.575 391.994, 766.485 392.384, 762.500 394.306 M 765.074 401.188 C 751.250 408.410, 756.488 427.984, 772.247 427.996 C 776.288 427.999, 777.582 427.469, 780.946 424.429 C 793.577 413.018, 780.127 393.323, 765.074 401.188 M 497.500 421.157 C 481.304 422.971, 458.511 429.759, 443.500 437.238 C 416.410 450.736, 389.773 478.243, 375.459 507.500 C 369.370 519.946, 366.143 529.308, 362.805 544.209 C 360.788 553.212, 360.500 557.191, 360.502 576 C 360.504 600.271, 361.411 606.351, 367.979 626.112 C 381.125 665.662, 409.771 698.475, 447.172 716.827 C 461.349 723.783, 470.180 726.846, 485.566 730.143 C 501.073 733.467, 529.522 733.474, 544.857 730.158 C 602.378 717.721, 645.209 679.980, 663.328 625.767 C 672.645 597.888, 673.454 561.456, 665.384 533.138 C 662.914 524.470, 656.301 508.790, 651.282 499.699 C 621.119 445.066, 560.495 414.103, 497.500 421.157 M 446.208 446.556 C 437.529 448.892, 430.995 452.024, 421.801 458.254 C 402.937 471.037, 389.499 489.871, 382.383 513.500 C 380.124 521, 379.669 524.416, 379.651 534 C 379.626 547.565, 381.629 554.111, 387.732 560.411 C 392.319 565.145, 396.476 567, 402.501 567 C 411.530 567, 418.680 561.530, 430.853 545.309 C 434.234 540.804, 437.381 536.882, 437.848 536.594 C 438.314 536.306, 438.484 539.361, 438.226 543.383 C 437.774 550.416, 437.873 550.826, 440.798 554.098 C 443.616 557.250, 444.269 557.496, 449.670 557.441 C 457.193 557.365, 460.827 555.413, 469.118 546.999 C 479.889 536.067, 485.462 521.662, 481.720 514.426 C 478.432 508.067, 473.997 506.336, 466.186 508.362 C 460.163 509.924, 459.949 510.454, 470.328 498.109 C 480.697 485.777, 483.327 480.027, 483.413 469.500 C 483.466 463.060, 483.044 460.683, 481.249 457.308 C 478.715 452.545, 473.751 448.389, 468.252 446.427 C 463.386 444.690, 452.912 444.752, 446.208 446.556 M 566 452.360 C 557.167 454.944, 551.160 459.661, 547.526 466.867 C 545.408 471.067, 545.356 480.922, 547.421 486.775 C 551.607 498.640, 563.730 509.897, 578.500 515.636 C 584.668 518.032, 586.926 518.364, 597.500 518.428 C 611.156 518.510, 615.498 517.159, 622.814 510.549 C 643.738 491.645, 615.202 453.149, 579 451.444 C 573.736 451.196, 568.787 451.545, 566 452.360 M 156.500 454.145 C 149.900 454.619, 142.255 455.346, 139.511 455.761 L 134.523 456.515 133.806 461.508 C 129.293 492.928, 128.852 600.884, 133.040 649 C 134.494 665.716, 137.153 687.162, 138.080 689.660 C 138.746 691.453, 140.803 692.260, 150.191 694.415 C 197.655 705.306, 234.242 708.672, 316.094 709.678 C 348.818 710.081, 367.907 709.960, 368.284 709.349 C 368.612 708.819, 366.368 705.261, 363.299 701.443 C 341.092 673.815, 327.057 641.615, 321.432 605.385 C 319.168 590.802, 319.173 562.375, 321.443 547.637 C 326 518.045, 337.695 488.040, 353.397 465.657 C 357.581 459.694, 360.751 454.406, 360.443 453.907 C 359.728 452.751, 172.891 452.969, 156.500 454.145 M 669.586 453.860 C 669.294 454.334, 671.076 457.324, 673.547 460.506 C 687.433 478.389, 699.365 503.974, 705.955 530 C 712.726 556.738, 712.783 593.506, 706.098 622.102 C 698.925 652.786, 682.386 685.766, 664.660 704.735 C 662.997 706.514, 661.980 708.314, 662.400 708.735 C 663.682 710.020, 717.825 710.225, 747.315 709.056 C 772.078 708.074, 801.255 706.079, 815.500 704.392 C 838.560 701.662, 882.204 693.097, 883.467 691.054 C 884.263 689.765, 886.996 668.944, 888.461 653 C 893.047 603.095, 893.142 519.163, 888.669 469.527 L 887.500 456.554 883 455.787 C 871.043 453.747, 838.208 453.019, 757.809 453.010 C 709.579 453.004, 669.879 453.387, 669.586 453.860 M 509 529.119 C 500.893 530.424, 490.075 536.141, 483.164 542.771 C 456.823 568.041, 465.872 611.779, 500.179 625.009 C 506.711 627.528, 509.345 628, 516.862 628 C 540.940 628, 560.356 612.858, 566.416 589.356 C 573.159 563.201, 555.325 535.202, 528.270 529.469 C 520.759 527.878, 517.123 527.812, 509 529.119 M 506.275 548.595 C 500.207 550.828, 492.590 558.099, 489.300 564.797 C 486.942 569.600, 486.500 571.762, 486.500 578.500 C 486.500 585.143, 486.957 587.445, 489.195 592.072 C 498.668 611.656, 525.227 616.103, 540.252 600.621 C 545.047 595.680, 547.379 591.230, 549.002 583.924 C 551.989 570.474, 544.187 555.544, 531.122 549.711 C 525.027 546.990, 512.202 546.414, 506.275 548.595 M 591.250 591.692 C 590.013 591.938, 589 592.783, 589 593.570 C 589 594.356, 588.435 595, 587.744 595 C 587.053 595, 584.465 598.447, 581.994 602.660 C 568.606 625.482, 550.923 639.873, 527.500 647.010 C 519.678 649.393, 512.762 650.674, 500.500 652.010 C 486.871 653.495, 483.924 654.068, 484.568 655.110 C 484.870 655.599, 484.767 656.563, 484.337 657.250 C 483.908 657.938, 483.368 659.175, 483.139 660 C 482.341 662.870, 482.506 684.999, 483.325 684.999 C 483.779 685, 484.021 686.238, 483.862 687.751 C 483.704 689.263, 483.921 691.063, 484.346 691.751 C 484.801 692.488, 484.620 693, 483.904 693 C 483.113 693, 483.266 693.637, 484.345 694.829 C 485.255 695.835, 486 697.410, 486 698.329 C 486 699.248, 486.563 700.007, 487.250 700.015 C 488.083 700.026, 488 700.354, 487 701 C 485.910 701.704, 485.858 701.974, 486.809 701.985 C 487.529 701.993, 487.852 702.430, 487.527 702.956 C 485.625 706.034, 499.876 709.015, 516.322 708.980 C 525.257 708.961, 542.590 706.985, 550.346 705.101 C 552.461 704.588, 555.220 704.354, 556.476 704.581 C 557.736 704.810, 559.316 704.325, 560.002 703.498 C 560.686 702.674, 562.288 702, 563.563 702 C 564.839 702, 566.179 701.519, 566.542 700.932 C 566.905 700.344, 567.889 700.127, 568.728 700.449 C 569.567 700.771, 570.871 700.522, 571.627 699.895 C 572.382 699.268, 573.007 699.148, 573.015 699.628 C 573.024 700.107, 573.413 699.896, 573.881 699.158 C 574.349 698.420, 576.479 697.593, 578.616 697.321 C 580.752 697.048, 583.576 696.077, 584.890 695.162 C 586.205 694.248, 587.965 693.050, 588.803 692.500 C 589.640 691.950, 591.151 690.712, 592.162 689.750 C 593.173 688.788, 594.398 688, 594.883 688 C 595.369 688, 596.026 687.007, 596.344 685.794 C 596.661 684.580, 597.235 683.901, 597.618 684.285 C 598.002 684.669, 598.920 684.481, 599.658 683.869 C 600.396 683.256, 601 683.014, 601 683.330 C 601 684.344, 605.525 679.627, 608.510 675.500 C 610.101 673.300, 612.887 670.038, 614.702 668.252 C 616.516 666.466, 618 664.664, 618 664.249 C 618 663.834, 619.539 661.329, 621.421 658.683 C 626.245 651.896, 636.473 630.954, 639.473 621.719 C 642.453 612.543, 642.854 606.458, 640.416 607.394 C 639.410 607.780, 638.986 607.545, 639.254 606.751 C 639.755 605.265, 637.173 603.077, 634.867 603.032 C 633.968 603.014, 632.998 602.100, 632.710 601 C 632.350 599.623, 631.346 599, 629.487 599 C 627.408 599, 626.929 598.627, 627.408 597.379 C 627.886 596.134, 627.564 595.881, 626.016 596.286 C 624.908 596.575, 623.750 596.404, 623.442 595.906 C 623.134 595.408, 622.046 595, 621.024 595 C 620.003 595, 618.987 594.461, 618.767 593.802 C 618.527 593.082, 615.997 592.524, 612.434 592.404 C 609.170 592.295, 603.575 591.990, 600 591.726 C 596.425 591.462, 592.487 591.447, 591.250 591.692 M 140.012 704.388 C 140.033 709.845, 144.864 727.182, 148.496 734.828 C 158.580 756.063, 174.808 768.437, 201 774.862 C 228.546 781.620, 261.420 784.528, 339 787.072 C 383.014 788.515, 691.367 787.770, 720 786.151 C 787.584 782.329, 821.531 777.239, 840.431 768.090 C 855.141 760.970, 868.853 745.827, 875.401 729.471 C 878.569 721.558, 882.322 703.922, 881.099 702.699 C 880.628 702.228, 878.509 702.314, 876.373 702.890 C 835.018 714.040, 772.576 719.337, 687.500 718.914 L 651.500 718.735 644.500 725.179 C 619.998 747.735, 587.363 763.457, 549 771.184 C 538.911 773.216, 534.739 773.491, 515 773.425 C 494.650 773.357, 491.238 773.092, 479.292 770.647 C 456.087 765.899, 429.838 755.603, 412.069 744.281 C 403.401 738.759, 388.911 727.600, 384.547 723.088 L 380.594 719 338.410 719 C 244.694 719, 192.826 714.714, 147.750 703.247 L 140 701.275 140.012 704.388" stroke="none" fill="#0202f2" fill-rule="evenodd"/>
</svg>