<svg xmlns="http://www.w3.org/2000/svg" width="1024" height="1024" viewBox="0 0 1024 1024" version="1.1">
	<path d="M 472.500 215.575 C 470.300 215.777, 460.400 216.454, 450.500 217.080 C 422.081 218.878, 410.025 223.011, 398.048 235.061 C 389.773 243.386, 385.135 251.327, 370.122 282.875 C 363.480 296.832, 356.895 309.759, 355.489 311.603 C 350.515 318.124, 345.633 320.014, 330.912 321.118 C 323.657 321.662, 317.108 321.872, 316.360 321.585 C 314.125 320.727, 314.808 317.981, 318 315 C 320.464 312.698, 321 311.403, 321 307.748 C 321 298.536, 316.692 291.811, 309.548 289.867 C 298.990 286.995, 241.266 292.762, 211.887 299.624 C 199.951 302.412, 196.204 304.975, 194.233 311.699 C 192.167 318.744, 195.337 329.068, 200.181 331.075 C 202.217 331.918, 203.011 332.875, 202.801 334.233 C 202.556 335.817, 200.429 336.713, 191.419 339.028 C 162.855 346.368, 145.850 359.473, 133.716 383.500 C 122.887 404.941, 116.789 449.135, 114.883 520 C 112.513 608.077, 116.901 678.030, 127.557 722.039 C 134.402 750.309, 152.065 772.273, 177.246 783.828 C 195.929 792.402, 227.963 797.195, 293 801.147 C 319.593 802.762, 647.259 803.505, 695.284 802.059 C 788.146 799.261, 832.094 792.468, 856 777.214 C 869.532 768.580, 883.893 750.757, 889.812 735.253 C 896.569 717.553, 902.505 680.218, 905.991 633.500 C 908.901 594.504, 908.106 508.208, 904.463 467.648 C 901.457 434.180, 896.089 403.352, 890.942 390.006 C 881.167 364.658, 860.722 347.156, 831.436 339.065 C 823.073 336.754, 795.245 331, 792.433 331 C 792.195 331, 792 330.092, 792 328.983 C 792 327.874, 793.964 325.061, 796.364 322.733 C 804.935 314.420, 808.063 296.762, 802.784 286.500 C 794.905 271.183, 774.227 260.971, 751.185 261.017 C 723.031 261.074, 706.972 273.114, 705.284 295.431 C 704.596 304.530, 705.361 308.779, 708.526 313.444 C 711.232 317.431, 711.723 320.785, 709.715 321.556 C 709.008 321.827, 701.695 321.657, 693.465 321.179 C 669.787 319.801, 667.692 318.193, 655.026 291.668 C 651.304 283.876, 645.235 271.200, 641.539 263.500 C 624.941 228.922, 612.475 220.455, 573 216.945 C 561.141 215.890, 480.995 214.798, 472.500 215.575 M 481.500 231.065 C 456.830 232.042, 430.398 234.595, 424.908 236.532 C 417.824 239.032, 412.584 242.581, 407.070 248.614 C 401.969 254.195, 397.276 263.085, 376.092 307.296 C 370.060 319.885, 362.996 327.719, 353.469 332.384 C 346.427 335.832, 341.814 336.546, 313.934 338.502 C 276.663 341.118, 231.574 346.933, 205.968 352.428 C 180.967 357.793, 167.602 364.515, 157.313 376.902 C 147.016 389.296, 143.335 399.236, 139.128 426 C 136.491 442.771, 136.234 445.031, 136.917 445.421 C 137.238 445.604, 142.225 445.156, 148 444.425 C 156.124 443.396, 182.493 443.085, 264.523 443.048 L 370.547 443 378.523 434.917 C 386.872 426.456, 404.269 412.850, 414.500 406.780 C 470.989 373.265, 542.008 370.114, 600.644 398.522 C 620.552 408.167, 636.082 419.094, 652.011 434.663 L 660.521 442.982 766.011 443.343 C 828.903 443.559, 874.125 444.106, 878 444.698 C 881.575 445.245, 884.684 445.541, 884.908 445.355 C 885.506 444.860, 880.269 411.482, 878.496 404.482 C 877.662 401.192, 875.207 394.900, 873.040 390.500 C 861.720 367.517, 843.689 356.688, 804.892 349.573 C 779.575 344.930, 735.398 339.901, 703 337.975 C 692.275 337.338, 681.151 336.379, 678.281 335.844 C 667.106 333.761, 655.230 325.280, 649.224 315.092 C 647.794 312.668, 642.957 302.993, 638.475 293.592 C 621.079 257.108, 619.099 253.415, 614.169 248.274 C 608.476 242.336, 603.173 238.817, 596.505 236.553 C 590.136 234.391, 567.933 232.211, 540.005 231.005 C 515.379 229.943, 509.711 229.948, 481.500 231.065 M 452.500 265.691 C 448.680 266.492, 442.528 271.594, 439.522 276.453 C 436.519 281.309, 436.498 281.448, 436.147 298.267 C 435.708 319.348, 436.458 322.565, 443.449 329.569 C 447.162 333.290, 449.756 334.953, 453.197 335.819 C 456.518 336.656, 473.892 337, 512.746 337 L 567.607 337 572.805 334.410 C 584.534 328.565, 587.470 320.935, 586.791 298.059 C 586.278 280.774, 585.305 277.500, 578.838 271.301 C 572.074 264.818, 573.919 264.986, 511.282 265.136 C 480.052 265.211, 453.600 265.461, 452.500 265.691 M 737.143 280.443 C 726.548 283.870, 724.615 292.109, 734.450 291.924 C 740.588 291.809, 750.253 287.390, 751.505 284.125 C 753.021 280.175, 744.626 278.022, 737.143 280.443 M 263.500 306.086 C 242.077 308.603, 213.858 312.973, 212 314.061 C 209.184 315.710, 210.482 315.579, 257.500 309.477 C 268.500 308.050, 281.764 306.432, 286.976 305.882 C 292.188 305.332, 296.650 304.683, 296.893 304.441 C 297.946 303.387, 278.178 304.361, 263.500 306.086 M 762.500 392.866 C 757.518 395.134, 751.636 401.543, 750.008 406.475 C 749.330 408.530, 748.967 412.867, 749.202 416.111 C 749.729 423.402, 753.403 429.118, 760.306 433.385 C 774.518 442.172, 793.899 430.852, 793.978 413.718 C 794.051 397.822, 776.763 386.370, 762.500 392.866 M 442.435 448.772 C 424.798 454.742, 407.977 468.104, 396.725 485.083 C 385.768 501.618, 380.719 516.785, 380.609 533.500 C 380.524 546.315, 382.338 552.698, 387.918 559.218 C 391.933 563.908, 396.277 566, 402 566 C 411.099 566, 417.736 561.094, 428.932 546.091 C 439.449 531.999, 440.240 531.678, 439.391 541.860 C 438.649 550.762, 439.894 553.885, 445.035 556.014 C 454.664 560.003, 470.465 548.769, 478.139 532.477 C 485.877 516.049, 480.206 505.786, 465.510 509.624 C 462.361 510.446, 459.593 510.926, 459.358 510.691 C 459.123 510.457, 462.841 505.607, 467.620 499.915 C 481.105 483.853, 485.260 472.320, 481.568 461.204 C 479.550 455.130, 473.039 448.660, 467.355 447.081 C 460.506 445.180, 451.179 445.813, 442.435 448.772 M 568.500 453.026 C 559.316 454.880, 554.105 458.188, 549.881 464.849 C 547.404 468.754, 547.001 470.381, 547.010 476.446 C 547.026 488.365, 553.247 498.794, 565.596 507.605 C 582.075 519.365, 606.923 521.358, 619.896 511.960 C 625.586 507.838, 629.380 499.596, 628.801 492.613 C 626.879 469.439, 594.030 447.874, 568.500 453.026 M 137.858 456.706 C 135.491 457.070, 135.154 457.652, 134.616 462.306 C 132.179 483.376, 131.543 503.489, 131.543 559.500 C 131.542 622.159, 132.303 639.567, 136.488 672.671 C 138.991 692.472, 138.110 690.537, 145.540 692.548 C 149.109 693.514, 152.182 694.124, 152.369 693.902 C 152.556 693.681, 152.122 689, 151.405 683.500 C 143.356 621.748, 141.785 535.864, 147.554 473 C 148.336 464.475, 148.982 457.163, 148.988 456.750 C 149 455.989, 142.683 455.964, 137.858 456.706 M 873.003 457.105 C 873.005 457.872, 873.669 465.250, 874.480 473.500 C 880.673 536.562, 878.515 635.275, 869.829 686.256 C 869.196 689.971, 868.919 693.253, 869.215 693.548 C 870.137 694.470, 882.999 690.818, 883.018 689.628 C 883.028 689.008, 883.711 683.775, 884.535 678 C 889.423 643.760, 891.435 599.941, 890.711 543.500 C 890.270 509.152, 887.828 458.585, 886.544 457.226 C 886.401 457.075, 883.296 456.672, 879.642 456.331 C 874.331 455.835, 873.001 455.990, 873.003 457.105 M 141 705.260 C 141 706.626, 142.127 712.185, 143.504 717.613 C 151.140 747.716, 168.837 765.535, 199 773.491 C 211.451 776.776, 239.288 780.662, 263.380 782.478 C 300.791 785.300, 369.128 787.089, 428 786.788 L 484.500 786.500 479.500 784.148 C 468.122 778.795, 460.889 778.135, 401.500 777.028 C 285.413 774.864, 222.083 770.351, 199.364 762.624 C 190.698 759.676, 187.920 758.228, 181.085 753.092 C 169.253 744.202, 161.221 731.600, 156.948 715.219 C 154.317 705.137, 154.303 705.124, 144.750 703.439 C 141.246 702.821, 141 702.940, 141 705.260 M 872.581 704.830 L 866.661 706.500 863.951 716.308 C 859.947 730.794, 855.858 738.128, 846.502 747.603 C 840.447 753.735, 836.675 756.597, 831 759.363 C 812.773 768.250, 780.399 772.796, 709 776.497 C 680.015 777.999, 656.659 778.569, 588 779.450 C 552.170 779.910, 543.713 780.757, 535.252 784.736 C 531.611 786.448, 533.209 786.509, 589.500 786.817 C 722.272 787.544, 804.245 781.742, 834.798 769.455 C 843.915 765.789, 854.913 758.190, 860.745 751.529 C 866.572 744.874, 872.824 733.645, 875.989 724.148 C 878.958 715.239, 880.938 702.938, 879.379 703.080 C 878.896 703.124, 875.836 703.912, 872.581 704.830 M 219 717.279 C 220.634 719.033, 253.647 722.369, 286 724.051 C 306.835 725.133, 384.064 726.869, 384.927 726.274 C 385.162 726.112, 384.065 724.634, 382.490 722.990 L 379.626 720 330.563 719.982 C 286.260 719.966, 264.981 719.421, 230 717.405 C 223.675 717.041, 218.725 716.984, 219 717.279 M 781 718.113 C 775.225 718.526, 743.725 719.168, 711 719.539 L 651.500 720.213 648.750 722.794 C 647.237 724.213, 646 725.627, 645.999 725.937 C 645.997 726.781, 713.584 725.373, 736.500 724.051 C 757.660 722.830, 791.455 719.621, 799 718.117 L 803.500 717.219 797.500 717.290 C 794.200 717.330, 786.775 717.700, 781 718.113" stroke="none" fill="#224ea5" fill-rule="evenodd"/>
</svg>