<svg xmlns="http://www.w3.org/2000/svg" width="2048" height="2048" viewBox="0 0 1024 1024" version="1.1">
	<path d="M 467 214.709 C 431.977 216.870, 421.493 218.676, 409.912 224.545 C 403.339 227.875, 392.990 237.622, 388.193 245 C 384.521 250.646, 374.025 271.384, 365.417 290 C 356.264 309.795, 351.568 316.041, 344.076 318.389 C 338.377 320.174, 317.340 321.359, 316.466 319.944 C 316.124 319.392, 317.230 317.363, 318.923 315.435 C 321.322 312.703, 321.999 311.001, 321.994 307.715 C 321.981 297.280, 317.851 290.883, 309.896 288.975 C 293.399 285.018, 209.006 295.524, 199.031 302.777 C 194.696 305.929, 191.815 312.747, 192.465 318.315 C 193.273 325.233, 195.470 329.791, 198.952 331.773 C 202.628 333.865, 202.913 336, 199.515 336 C 197.352 336, 184.298 339.451, 178.500 341.555 C 156.943 349.380, 139.764 365.691, 130.963 386.691 C 127.724 394.418, 123.899 408.829, 122.519 418.500 C 122.126 421.250, 121.549 423.916, 121.236 424.423 C 120.924 424.931, 120.587 426.506, 120.489 427.923 C 120.391 429.341, 119.323 438.825, 118.116 449 C 116.909 459.175, 115.333 477.625, 114.614 490 C 112.941 518.785, 112.606 592.146, 114.020 620 C 116.426 667.398, 122.861 713.777, 129.842 734.048 C 136.226 752.583, 150.460 769.756, 167.863 779.920 C 189.196 792.379, 214.868 797.206, 283.500 801.663 C 304.534 803.029, 336.660 803.356, 486 803.724 C 716.588 804.294, 753.495 803.218, 806.946 794.365 C 836.477 789.475, 854.010 782.228, 867.637 769.281 C 888.434 749.522, 894.837 733.657, 901.856 684.500 C 907.627 644.077, 908.499 627.523, 908.461 559 C 908.433 509.871, 908.098 494.741, 906.676 478.500 C 903.544 442.715, 899.146 413.628, 894.379 397.178 C 887.476 373.357, 872.031 355.400, 848.553 343.894 C 844.182 341.752, 839.884 340, 839.003 340 C 838.121 340, 836.973 339.614, 836.450 339.142 C 835.627 338.400, 818.267 334.532, 799.767 330.969 C 796.615 330.362, 793.753 329.410, 793.409 328.853 C 793.065 328.296, 794.341 326.414, 796.244 324.670 C 800.737 320.554, 803.531 314.957, 805.572 305.984 C 807.534 297.356, 807.066 293.609, 802.996 285.340 C 797.632 274.444, 786.905 266.711, 771.138 262.373 C 759.277 259.109, 741.026 258.996, 731.341 262.125 C 723.536 264.646, 713.400 271.302, 710.240 275.980 C 704.247 284.851, 701.996 303.381, 706.010 310.790 C 707.116 312.830, 708.538 315.226, 709.170 316.114 C 709.801 317.002, 710.048 318.433, 709.717 319.294 C 709.200 320.643, 707.277 320.788, 695.808 320.343 C 669.768 319.333, 670.225 319.750, 650.002 278.577 C 641.337 260.935, 633.050 244.925, 631.587 243 C 622.825 231.470, 612.051 223.634, 599.500 219.665 C 588.210 216.095, 552.194 213.949, 507.517 214.185 C 488.258 214.287, 470.025 214.523, 467 214.709" stroke="none" fill="#0202f2" fill-rule="evenodd"/>
</svg>
